HIERARCHY
ROOT root
{
	OFFSET 0.000000 0.000000 0.000000
	CHANNELS 6 Xposition Yposition Zposition Zrotation Yrotation Xrotation
	JOINT lhip
	{
		OFFSET 0.058581 -0.082280 -0.017664
		CHANNELS 3 Zrotation Yrotation Xrotation
		JOINT lknee
		{
			OFFSET 0.043451 -0.386469 0.008037
			CHANNELS 3 Zrotation Yrotation Xrotation
			JOINT lankle
			{
				OFFSET -0.014790 -0.426874 -0.037428
				CHANNELS 3 Zrotation Yrotation Xrotation
				JOINT ltoe
				{
					OFFSET 0.041054 -0.060286 0.122042
					CHANNELS 3 Zrotation Yrotation Xrotation
					End Site
					{
						OFFSET 0.000000 0.000000 0.000000
					}
				}
			}
		}
	}
	JOINT rhip
	{
		OFFSET -0.060310 -0.090513 -0.013543
		CHANNELS 3 Zrotation Yrotation Xrotation
		JOINT rknee
		{
			OFFSET -0.043257 -0.383688 -0.004843
			CHANNELS 3 Zrotation Yrotation Xrotation
			JOINT rankle
			{
				OFFSET 0.019056 -0.420046 -0.034562
				CHANNELS 3 Zrotation Yrotation Xrotation
				JOINT rtoe
				{
					OFFSET -0.034840 -0.062106 0.130323
					CHANNELS 3 Zrotation Yrotation Xrotation
					End Site
					{
						OFFSET 0.000000 0.000000 0.000000
					}
				}
			}
		}
	}
	JOINT lowerback
	{
		OFFSET 0.004439 0.124404 -0.038385
		CHANNELS 3 Zrotation Yrotation Xrotation
		JOINT upperback
		{
			OFFSET 0.004488 0.137956 0.026820
			CHANNELS 3 Zrotation Yrotation Xrotation
			JOINT chest
			{
				OFFSET -0.002265 0.056032 0.002855
				CHANNELS 3 Zrotation Yrotation Xrotation
				JOINT lowerneck
				{
					OFFSET -0.013390 0.211636 -0.033468
					CHANNELS 3 Zrotation Yrotation Xrotation
					JOINT upperneck
					{
						OFFSET 0.010113 0.088937 0.050410
						CHANNELS 3 Zrotation Yrotation Xrotation
						End Site
						{
							OFFSET 0.000000 0.000000 0.000000
						}
					}
				}
				JOINT lclavicle
				{
					OFFSET 0.071702 0.114000 -0.018898
					CHANNELS 3 Zrotation Yrotation Xrotation
					JOINT lshoulder
					{
						OFFSET 0.122921 0.045205 -0.019046
						CHANNELS 3 Zrotation Yrotation Xrotation
						JOINT lelbow
						{
							OFFSET 0.255332 -0.015649 -0.022946
							CHANNELS 3 Zrotation Yrotation Xrotation
							JOINT lwrist
							{
								OFFSET 0.265709 0.012698 -0.007375
								CHANNELS 3 Zrotation Yrotation Xrotation
								End Site
								{
									OFFSET 0.000000 0.000000 0.000000
								}
							}
						}
					}
				}
				JOINT rclavicle
				{
					OFFSET -0.082954 0.112472 -0.023707
					CHANNELS 3 Zrotation Yrotation Xrotation
					JOINT rshoulder
					{
						OFFSET -0.113228 0.046853 -0.008472
						CHANNELS 3 Zrotation Yrotation Xrotation
						JOINT relbow
						{
							OFFSET -0.260127 -0.014369 -0.031269
							CHANNELS 3 Zrotation Yrotation Xrotation
							JOINT rwrist
							{
								OFFSET -0.269108 0.006794 -0.006027
								CHANNELS 3 Zrotation Yrotation Xrotation
								End Site
								{
									OFFSET 0.000000 0.000000 0.000000
								}
							}
						}
					}
				}
			}
		}
	}
}
MOTION
Frames: 14
Frame Time: 0.033333
0.034409 -1.784404 0.975103 -157.569520 1.632666 88.350125 9.626025 1.682471 -8.975477 -4.687018 -6.152901 13.779297 -0.797049 2.355925 -11.847181 0.000000 -0.000000 0.000000 -2.579742 -10.298413 0.828961 2.002599 -10.053580 9.086533 -3.485604 -5.169327 -13.434343 0.000000 -0.000000 0.000000 -1.289461 3.906180 12.358575 1.205199 -2.359128 10.341412 3.540116 0.596743 -0.334778 2.004391 -7.044640 2.795298 10.784204 -4.376138 -1.548601 -26.454472 -0.927998 5.314630 -55.951069 -2.364605 15.886962 -11.464327 -83.609119 27.121918 17.115784 2.989687 -22.315452 24.681845 10.038338 8.336666 53.334602 9.138830 18.780530 48.155031 72.262468 57.013695 -15.212590 9.912498 -24.263197 
0.033474 -1.786156 0.974979 -157.088854 1.719217 88.625538 9.728550 1.931070 -10.029557 -5.198929 -5.987848 14.711680 -0.897512 2.321055 -11.440778 0.000000 -0.000000 0.000000 -2.472951 -10.161021 0.504850 2.103571 -10.002333 8.980489 -3.046080 -5.962768 -13.453948 0.000000 -0.000000 0.000000 -1.275319 3.933603 12.901917 1.223617 -2.281307 10.201438 3.772359 0.639882 -0.040325 2.435975 -7.028299 1.821922 10.627209 -4.862355 -1.546824 -25.965092 -0.830473 5.209673 -55.792885 -2.477438 15.855357 -15.868824 -83.423611 32.216635 16.152801 2.534376 -22.877473 24.607830 10.113929 8.338670 53.094750 9.746560 18.405170 46.802812 72.244156 57.312116 -13.489489 11.110537 -22.253854 
0.031879 -1.787495 0.975157 -156.588694 1.825573 88.841577 9.538610 1.913324 -10.797600 -5.178587 -6.076770 15.507506 -0.725380 2.043522 -11.904569 0.000000 -0.000000 0.000000 -2.361047 -10.312574 0.247049 2.018366 -10.281602 8.976592 -2.996528 -6.231835 -13.556579 0.000000 -0.000000 0.000000 -1.045736 4.077480 13.671372 1.237974 -2.185745 9.696616 3.912980 0.645376 0.175885 2.561518 -7.345413 1.573440 10.826703 -5.209500 -1.733830 -25.784995 -1.017633 5.199291 -55.340337 -2.162644 16.016966 -20.206133 -83.585777 36.445941 16.759809 2.836173 -22.709049 24.495695 10.377429 8.295908 53.412573 9.170589 18.760039 47.096102 72.301790 56.333864 -15.372475 10.455964 -23.027163 
0.029547 -1.789187 0.975283 -156.348630 1.914319 89.026160 9.433556 1.841736 -11.290413 -5.218082 -6.198038 15.889404 -0.648282 2.074554 -11.723176 0.000000 -0.000000 0.000000 -2.439997 -10.671979 -0.179009 2.081519 -10.438796 9.307560 -3.089442 -6.126770 -13.783161 0.000000 -0.000000 0.000000 -0.938563 4.265424 14.505898 1.282524 -2.010568 9.769413 4.047203 0.837752 0.020225 2.518316 -7.331995 1.758659 10.929884 -5.008577 -2.030619 -25.552439 -0.993523 5.170019 -55.166256 -1.970127 15.938281 -23.613314 -83.942057 40.133291 16.868265 2.865570 -22.723257 24.464103 10.650812 8.415491 53.545678 9.324574 18.601517 46.775074 72.304785 56.195159 -14.628830 10.799615 -22.643303 
0.028178 -1.789662 0.975221 -156.443781 2.070643 89.325396 9.465861 1.754783 -11.723044 -5.206327 -6.113018 16.225819 -0.536236 2.121315 -12.150084 0.000000 -0.000000 0.000000 -2.281111 -10.431822 -0.611672 2.081938 -10.428438 9.434224 -3.181525 -6.305363 -13.841986 0.000000 -0.000000 0.000000 -0.913942 4.431139 14.582973 1.371149 -1.720384 9.762168 4.174491 1.017562 0.201963 2.620166 -7.507596 1.796109 11.015633 -5.106938 -2.586088 -25.543127 -0.871714 5.006253 -55.057959 -1.970117 16.052277 -25.421674 -84.124588 42.014343 17.377616 3.023032 -22.235611 24.495200 10.738094 8.486586 53.529270 9.529767 18.554031 46.273006 72.307469 55.736139 -14.814812 11.181537 -22.223590 
0.025160 -1.791396 0.975195 -155.971460 1.913910 89.630921 9.036939 1.354174 -12.258115 -5.309588 -6.212631 16.419053 0.081057 2.157625 -12.014788 0.000000 -0.000000 0.000000 -2.631061 -10.372067 -1.117825 2.084089 -10.745993 9.772365 -3.052027 -6.590946 -14.006429 0.000000 -0.000000 0.000000 -0.893006 4.448738 15.290492 1.371639 -1.753493 9.677431 4.184248 1.071943 0.060660 2.481644 -7.842435 1.796706 11.017450 -4.967437 -2.612728 -25.498457 -0.954855 5.064035 -55.011725 -1.737524 16.019832 -26.488524 -85.098388 43.398254 18.138751 3.147527 -21.614417 24.478648 11.315573 8.467841 53.717483 9.329603 18.820982 45.477340 72.957026 54.908713 -14.213158 11.566231 -21.270942 
0.022621 -1.792174 0.974997 -155.975511 1.923576 89.919524 8.883852 1.105778 -12.564062 -5.175335 -6.185146 16.579665 -0.305196 2.216074 -12.084662 0.000000 -0.000000 0.000000 -2.764942 -10.369366 -1.711640 2.067372 -11.129375 10.211160 -2.970277 -6.542304 -14.214796 0.000000 -0.000000 0.000000 -0.944962 4.539250 15.800104 1.360303 -1.557463 9.673790 4.250220 1.196513 0.299428 2.540122 -7.754772 1.340752 11.033320 -5.165156 -3.011292 -25.401382 -0.880155 4.993607 -55.067087 -1.669755 16.010493 -26.059087 -86.228272 43.489902 18.567042 3.126615 -21.224669 24.452420 11.544259 8.337358 53.906064 9.787424 18.850128 45.751996 73.123745 55.503317 -14.261328 11.697459 -20.951677 
0.019400 -1.793313 0.974726 -155.670856 1.916836 90.355221 8.597712 1.066311 -13.268111 -5.350430 -6.153080 16.893398 0.483140 2.180941 -12.347575 0.000000 -0.000000 0.000000 -2.950299 -10.478731 -2.463644 2.088580 -11.386200 10.725445 -2.878676 -6.805579 -14.464859 0.000000 -0.000000 0.000000 -0.901837 4.605588 16.334189 1.418590 -1.447240 9.399420 4.297126 1.196108 0.408334 2.220807 -8.194316 1.716056 10.940603 -4.944140 -3.333282 -25.228728 -0.591674 4.993694 -55.140149 -2.053159 15.700696 -34.997137 -86.882758 52.707141 19.708070 3.591627 -20.734660 24.244677 11.351818 8.180231 54.290698 10.198257 18.855428 46.949234 73.053660 56.650470 -14.422611 11.946328 -20.592682 
0.016530 -1.793790 0.974531 -155.913300 1.941965 90.832700 8.514800 1.312679 -13.737038 -5.410115 -5.983486 16.987646 0.334085 1.882029 -12.590862 0.000000 -0.000000 0.000000 -3.098439 -10.336495 -3.611621 2.035578 -11.656598 11.756657 -2.639260 -6.725629 -14.677399 0.000000 -0.000000 0.000000 -1.159000 4.762747 16.569203 1.470519 -1.109593 9.364473 4.434684 1.435517 0.409192 2.192659 -8.580208 1.845291 10.886815 -5.277864 -3.820069 -25.225224 -0.679367 4.897741 -55.115594 -2.133394 15.695803 -37.117079 -87.826449 55.096959 20.136325 3.732691 -20.467594 24.289572 11.744555 8.283432 54.620628 10.251896 18.887760 45.815550 73.722850 55.683626 -14.087855 12.005989 -20.049186 
0.013241 -1.792161 0.972783 -156.590662 2.025288 91.736778 8.870987 1.321407 -14.507854 -5.973048 -5.180961 17.290052 1.085633 2.043339 -12.895271 0.000000 -0.000000 0.000000 -2.907586 -9.250003 -5.028540 1.814370 -11.993663 12.454191 -2.689028 -7.698829 -14.761274 0.000000 -0.000000 0.000000 -2.038491 5.021390 15.921047 1.698689 -0.368951 9.508338 4.775148 1.840789 0.339608 1.739105 -9.153887 2.965083 10.735235 -5.227972 -4.471080 -24.846958 -0.912737 5.552787 -55.368082 -2.688184 15.506149 -26.256233 -88.580848 44.766323 20.389815 4.148857 -20.544896 24.206001 12.078786 8.979041 55.266441 10.951947 18.722371 44.046813 73.939769 55.087901 -13.908049 11.692427 -20.718559 
0.008404 -1.792051 0.972092 -156.091265 2.047423 91.967091 8.712068 1.161332 -14.962542 -6.231138 -4.961423 17.661831 1.351899 1.799095 -13.204356 0.000000 -0.000000 0.000000 -3.135639 -9.355585 -5.403133 1.737448 -12.486519 12.945458 -2.597432 -8.076382 -14.791606 0.000000 -0.000000 0.000000 -2.023754 5.043270 16.367437 1.783622 -0.448856 9.206678 4.861971 1.876752 0.324428 1.064716 -9.196001 3.852416 10.522201 -4.888339 -4.568311 -24.786989 -1.210074 5.665542 -55.352177 -3.346321 15.304067 -22.299301 -88.295264 40.786086 21.263023 4.211170 -20.928865 24.320206 12.419310 9.210338 55.378203 11.251101 18.723200 42.322403 74.006457 53.532167 -14.879955 11.699537 -20.943195 
0.003098 -1.792556 0.971444 -155.516220 2.064450 92.077227 8.278958 1.038816 -15.599637 -6.202650 -4.940129 18.605356 1.412395 1.879250 -13.239727 0.000000 -0.000000 0.000000 -3.465787 -9.669114 -5.503600 1.646176 -12.808244 13.295854 -2.428190 -7.987434 -15.073055 0.000000 -0.000000 0.000000 -1.852082 5.132340 17.039280 1.811772 -0.641038 8.745106 4.886382 1.779926 0.501097 0.871472 -9.077778 3.734566 10.166236 -5.062244 -4.467811 -24.680735 -1.668547 5.566820 -55.412629 -3.847153 15.497865 -2.171173 -88.009696 20.442489 21.625146 4.419138 -20.916615 24.304462 12.681791 9.005614 55.547185 11.586964 18.890084 40.836999 73.881374 51.756994 -15.190378 11.543952 -20.926202 
-0.002756 -1.793047 0.971027 -154.792576 2.031866 92.204146 7.817378 0.330219 -15.989450 -6.226440 -5.542410 19.215448 1.718385 1.855107 -14.066422 0.000000 -0.000000 0.000000 -3.918213 -9.901243 -5.488800 1.646966 -13.136371 13.560666 -1.994121 -8.030630 -15.288336 0.000000 -0.000000 0.000000 -1.667740 5.163333 17.634192 1.802150 -0.866690 8.477802 4.913044 1.680688 0.494718 0.680597 -9.386397 3.669272 9.957692 -5.251709 -4.599439 -24.700813 -1.965010 5.590640 -55.337972 -4.305747 15.417737 5.129733 -87.631561 12.947317 21.607902 4.304322 -21.084220 24.345462 13.019187 8.945513 55.672276 11.647108 19.057602 38.894718 73.775548 49.338008 -16.628678 11.691058 -21.368567 
-0.009088 -1.793849 0.970559 -154.136543 2.040265 92.423853 7.221004 -0.047497 -16.825243 -6.177036 -5.603811 20.304429 2.161284 2.075827 -14.414540 0.000000 -0.000000 0.000000 -4.310966 -10.170270 -5.661873 1.603011 -13.438175 13.973782 -1.940952 -7.950660 -15.683501 0.000000 -0.000000 0.000000 -1.420231 5.126035 18.092117 1.744849 -1.156109 8.012841 4.764426 1.588121 0.669170 0.666775 -9.109295 3.637432 9.848093 -5.345292 -4.748068 -24.701788 -1.903685 5.500494 -55.233088 -4.651711 15.219286 7.980448 -87.544094 10.038446 21.349901 4.370087 -21.398912 24.657615 12.987833 9.088049 55.679888 12.111682 19.067488 37.285778 73.236679 48.441480 -18.352473 12.384641 -19.720555 
